<svg width="19" height="16" viewBox="0 0 19 16" fill="none" xmlns="http://www.w3.org/2000/svg">
<path d="M18.5 1.31967V14.3297C18.5 14.6597 18.1801 14.8898 17.8501 14.7998C15.4661 14.1208 13.073 14.1177 10.687 15.3077C10.486 15.4077 10.249 15.2717 10.249 15.0467V1.85276C10.249 1.78576 10.2701 1.71877 10.3091 1.66477C10.9321 0.809767 11.896 0.214707 13.019 0.0787074C14.831 -0.141293 16.5731 0.0787876 18.2141 0.861788C18.3891 0.944788 18.5 1.12667 18.5 1.31967ZM5.97998 0.0796773C4.16798 -0.140323 2.42591 0.0797575 0.78491 0.862757C0.61091 0.945757 0.5 1.12777 0.5 1.32077V14.3308C0.5 14.6608 0.8199 14.8908 1.1499 14.8008C3.5339 14.1218 5.92699 14.1187 8.313 15.3087C8.514 15.4087 8.751 15.2727 8.751 15.0477V1.85373C8.751 1.78673 8.7299 1.71974 8.6909 1.66574C8.0669 0.810737 7.104 0.215677 5.97998 0.0796773Z" fill="#8E8767"/>
</svg>
