<svg width="18" height="18" viewBox="0 0 18 18" fill="none" xmlns="http://www.w3.org/2000/svg">
<path d="M17.8789 17.394C18.1189 17.594 17.9789 17.994 17.6689 17.994C16.6389 18.034 15.0591 17.894 14.0891 16.864C13.2991 17.144 12.419 17.2841 11.499 17.2841C9.481 17.2841 7.686 16.607 6.49902 15.368C6.31002 15.17 6.35802 14.785 6.79102 14.819C7.024 14.835 7.259 14.844 7.499 14.844C12.119 14.844 15.614 12.143 16.353 8.235C16.403 7.973 16.7291 7.886 16.8931 8.097C17.5931 9.003 17.998 10.1481 17.998 11.5031C17.998 13.0331 17.4679 14.314 16.5879 15.264C16.6989 15.964 17.0889 16.754 17.8789 17.394ZM14.998 6.67102C14.998 6.62402 14.992 6.58103 14.991 6.53503C14.917 2.44903 11.594 0 7.499 0C3.35802 0 0 2.50202 0 6.67102C0 8.439 0.608 9.915 1.625 11.015C1.5 11.816 1.05009 12.733 0.14209 13.467C-0.13291 13.7 0.0250301 14.159 0.38403 14.167C1.56703 14.209 3.39203 14.05 4.50903 12.858C4.73703 12.937 4.97094 13.006 5.21094 13.066C5.93194 13.247 6.69998 13.3409 7.501 13.3409C11.64 13.3419 14.998 10.84 14.998 6.67102Z" fill="#FC72FF"/>
</svg>
